ply
format ascii 1.0
element vertex 20
property float x
property float y
property float z
property float nx
property float ny
property float nz
property uchar red
property uchar green
property uchar blue
element face 32
property list uchar int vertex_index
end_header
-2.458277 1.357626 -1.997834 0.856445 -0.516238 0.000000 0 255 255
-2.450333 1.349681 -1.997834 0.000000 1.000000 0.000000 0 255 255
-2.450333 1.357626 -2.005779 -0.000000 -0.102229 0.994761 0 255 255
-2.450333 1.357626 -1.989889 -0.000000 -0.102229 -0.994761 0 255 255
-2.450333 1.365571 -1.997834 0.000000 -1.000000 0.000000 0 255 255
-2.442388 1.357626 -1.997834 -0.856445 -0.516238 0.000000 0 255 255
-1.957973 1.557626 -1.497834 0.979412 -0.007059 -0.201746 0 255 255
-1.950333 1.549985 -1.497834 0.000000 1.000000 0.000000 0 255 255
-1.950333 1.557626 -1.505475 0.121348 0.145796 0.981844 0 255 255
-1.950333 1.557626 -1.490193 -0.121348 0.145796 -0.981844 0 255 255
-1.957828 1.577626 -1.497834 0.999993 0.003707 0.000000 0 255 255
-1.950333 1.577626 -1.505329 0.041714 -0.000357 0.999130 0 255 255
-1.950333 1.577626 -1.490339 -0.041714 -0.000357 -0.999130 0 255 255
-1.957901 1.597626 -1.497834 0.821182 -0.510419 0.255210 0 255 255
-1.950333 1.597626 -1.505403 -0.073276 -0.239412 0.968149 0 255 255
-1.950333 1.597626 -1.490265 0.073276 -0.239412 -0.968149 0 255 255
-1.950333 1.605195 -1.497834 0.000000 -1.000000 0.000000 0 255 255
-1.942692 1.557626 -1.497834 -0.979412 -0.007059 0.201746 0 255 255
-1.942838 1.577626 -1.497834 -0.999993 0.003707 0.000000 0 255 255
-1.942764 1.597626 -1.497834 -0.821182 -0.510419 -0.255210 0 255 255
3 2 1 0
3 3 0 1
3 4 2 0
3 4 0 3
3 2 5 1
3 5 3 1
3 4 5 2
3 5 4 3
3 8 7 6
3 9 6 7
3 8 6 10
3 8 10 11
3 6 9 12
3 6 12 10
3 11 10 13
3 11 13 14
3 10 12 15
3 10 15 13
3 16 14 13
3 16 13 15
3 8 17 7
3 17 9 7
3 11 18 17
3 11 17 8
3 18 12 9
3 18 9 17
3 14 19 18
3 14 18 11
3 19 15 12
3 19 12 18
3 16 19 14
3 19 16 15
